<?xml version="1.0" standalone="no"?><!DOCTYPE svg PUBLIC "-//W3C//DTD SVG 1.1//EN" "http://www.w3.org/Graphics/SVG/1.1/DTD/svg11.dtd"><svg t="1733824155912" class="icon" viewBox="0 0 1024 1024" version="1.1" xmlns="http://www.w3.org/2000/svg" p-id="5397" xmlns:xlink="http://www.w3.org/1999/xlink" width="100" height="100"><path d="M916.053333 108.373333c-22.186667-21.76-54.186667-29.013333-83.2-17.92L136.96 343.893333c-29.866667 11.093333-49.92 37.546667-52.053333 69.12-2.56 31.573333 13.226667 60.586667 40.96 75.946667l211.626666 115.626667c12.8 6.826667 28.16 4.693333 38.4-5.546667l34.986667-34.133333 214.186667-209.92c12.8-11.946667 32.853333-11.946667 45.226666 0.853333 12.373333 12.373333 12.373333 32.853333-0.426666 45.226667l-216.746667 212.053333-29.013333 28.586667c-10.666667 10.24-12.8 26.453333-5.546667 39.253333l125.44 219.306667c14.933333 24.32 40.106667 38.4 67.84 38.4 2.986667 0 5.546667 0 8.533333-0.426667 30.72-2.986667 56.32-23.466667 66.986667-52.48L935.253333 192c10.24-29.44 2.986667-61.44-19.2-83.626667z" fill="#ffff" p-id="5398"></path></svg>